# xmcd CD database file
#
# Track frame offsets:
#	150
#	23219
#	46284
#	69351
#
# Disc length: 1228 seconds
#
# Revision: 0
# Processed by: cddbd v1.5.2PL0 Copyright (c) Steve Scherf et al.
# Submitted via: CDex 1.70beta2
#
DISCID=2b04ca04
DTITLE=KOTOKO - daily-daily Dream
DYEAR=2009
DGENRE=I've
TTITLE0=daily-daily Dream
TTITLE1=Message
TTITLE2=daily-daily Dream -Instrumental-
TTITLE3=Message -Instrumental-
EXTD=YEAR: 2009
EXTT0=
EXTT1=
EXTT2=
EXTT3=
PLAYORDER=
